PathFileType	4	(X/Y/Z)	D:\telocate\uwb02-Unnamed.trc
DataRate	CameraRate	NumFrames	NumMarkers	Units	OrigDataRate	OrigDataStartFrame	OrigNumFrames
100.00	100.00	      80	0	mm	100.00	3979	      4547
Frame#	Time	
		

3979	39.780				2951.37573	-3069.39282	1197.39636	
3980	39.790				2951.44458	-3069.52319	1197.35950	
3981	39.800				2951.56567	-3069.62378	1197.27502	
3982	39.810				2951.73535	-3069.75098	1197.24939	
3983	39.820				2951.98267	-3069.80835	1197.65747	
3984	39.830				2951.82056	-3070.51221	1197.47351	
3985	39.840				2952.04614	-3070.75513	1197.51672	
3986	39.850				2952.14648	-3071.29272	1197.65381	
3987	39.860				2952.25171	-3071.50537	1197.25684	
3988	39.870				2952.34106	-3071.69263	1197.53821	
3989	39.880				2952.32642	-3072.32788	1197.61731	
3990	39.890				2952.39038	-3071.98560	1197.93481	
3991	39.900				2952.06689	-3072.25195	1198.16626	
3992	39.910				2952.27954	-3073.20264	1197.98572	
3993	39.920				2952.36743	-3073.61182	1197.83936	
3994	39.930				2952.54980	-3073.60400	1197.93665	
3995	39.940				2952.22021	-3073.95874	1197.96533	
3996	39.950				2952.45752	-3074.25269	1197.82983	
3997	39.960				2952.30811	-3074.80957	1197.74487	
3998	39.970				2952.51050	-3075.07446	1197.68152	
3999	39.980				2952.64624	-3075.16357	1197.55444	
4000	39.990				2952.42310	-3075.27417	1197.81348	
4001	40.000				2952.51367	-3075.46680	1197.87012	
4002	40.010				2952.47388	-3075.86401	1197.74622	
4003	40.020				2952.51636	-3075.98584	1197.72388	
4004	40.030				2952.55200	-3076.12769	1197.72693	
4005	40.040				2952.73657	-3076.40845	1197.73181	
4006	40.050				2952.74365	-3076.50269	1197.75525	
4007	40.060				2952.72705	-3076.67773	1197.89331	
4008	40.070				2950.58032	-3077.88525	1197.28259	
4009	40.080				2950.58911	-3077.99292	1197.26978	
4010	40.090				2952.82642	-3077.85913	1197.87537	
4011	40.100				2952.82764	-3078.31812	1198.04688	
4012	40.110				2950.73169	-3079.51538	1197.71289	
4013	40.120				2950.90723	-3079.04639	1197.47729	
4014	40.130				2950.96606	-3079.85425	1197.64368	
4015	40.140				2951.03662	-3080.07617	1197.53503	
4016	40.150				2950.84863	-3080.26758	1197.11206	
4017	40.160				2950.87524	-3080.30566	1197.10767	
4018	40.170				2951.03125	-3080.47974	1197.12646	
4019	40.180				2951.10352	-3080.58594	1197.03882	
4020	40.190				2951.23267	-3080.65967	1197.11401	
4021	40.200				2953.46460	-3080.16626	1197.94470	
4022	40.210				2953.56714	-3080.27197	1197.93713	
4023	40.220				2953.77222	-3080.35571	1197.82129	
4024	40.230				2953.69995	-3080.32593	1197.87463	
4025	40.240				2953.68481	-3080.32568	1197.87585	
4026	40.250				2953.74854	-3080.26099	1197.71985	
4027	40.260				2951.31323	-3080.75146	1197.14136	
4028	40.270				2953.49658	-3080.25244	1197.85779	
4029	40.280				2951.22095	-3080.66577	1197.10852	
4030	40.290				2950.88379	-3080.45923	1197.06189	
4031	40.300				2951.00439	-3080.49023	1197.09839	
4032	40.310				2950.78638	-3080.38965	1197.12537	
4033	40.320				2950.78271	-3080.34839	1197.12854	
4034	40.330				2950.96167	-3080.21191	1197.56665	
4035	40.340				2950.69702	-3080.28784	1197.16260	
4036	40.350				2950.66235	-3080.30640	1197.18079	
4037	40.360				2950.51294	-3080.21558	1197.16394	
4038	40.370				2950.73608	-3080.04321	1197.61230	
4039	40.380				2950.49243	-3080.13184	1197.16785	
4040	40.390				2950.43262	-3079.95679	1197.28235	
4041	40.400				2950.48120	-3079.85742	1197.27356	
4042	40.410				2950.58423	-3079.17090	1197.18567	
4043	40.420				2950.44238	-3079.66553	1197.30249	
4044	40.430				2950.70947	-3078.74121	1197.60474	
4045	40.440				2952.73828	-3077.88184	1197.89185	
4046	40.450				2952.67676	-3077.71094	1197.81067	
4047	40.460				2952.66821	-3077.65283	1197.76599	
4048	40.470				2952.59985	-3077.46045	1197.73376	
4049	40.480				2952.73608	-3076.61670	1197.77649	
4050	40.490				2952.61890	-3076.43213	1197.73987	
4051	40.500				2952.62158	-3076.32104	1197.69727	
4052	40.510				2950.38110	-3076.46729	1196.76282	
4053	40.520				2952.45361	-3075.92505	1197.75452	
4054	40.530				2952.40869	-3075.86206	1197.75891	
4055	40.540				2952.30054	-3075.60254	1197.62646	
4056	40.550				2952.04224	-3075.44653	1197.76587	
4057	40.560				2952.05005	-3075.17017	1197.53479	
4058	40.570				2952.26343	-3075.08179	1197.80505	
